/* XPM */
static char *_511fcae49784283d6610e39acafd7d41cMAQXh95Hlb1jZ4[] = {
/* columns rows colors chars-per-pixel */
"50 50 253 2 ",
"   c #70021C",
".  c #7A082E",
"X  c #770526",
"o  c #7D0A32",
"O  c #6E0723",
"+  c #77074B",
"@  c #6C0C56",
"#  c #740E5B",
"$  c #770C55",
"%  c #760F54",
"&  c #7C1362",
"*  c #86062C",
"=  c #840A34",
"-  c #8A0A35",
";  c #860B38",
":  c #8C0C3A",
">  c #8C0432",
",  c #940C3C",
"<  c #9B0C3D",
"1  c #960835",
"2  c #97133D",
"3  c #93082F",
"4  c #A6063A",
"5  c #B2103C",
"6  c #B9282D",
"7  c #BC2C37",
"8  c #BD2C39",
"9  c #B92534",
"0  c #BF3037",
"q  c #BF362D",
"w  c #CA0C3D",
"e  c #C12E36",
"r  c #C23336",
"t  c #C2343A",
"y  c #C5393A",
"u  c #C93C39",
"i  c #C93A35",
"p  c #C9413C",
"a  c #CD483B",
"s  c #D34B3D",
"d  c #D5583C",
"f  c #E65D3C",
"g  c #EA6C39",
"h  c #D9613C",
"j  c #9B0C43",
"k  c #9D1444",
"l  c #840D59",
"z  c #88175C",
"x  c #941A5C",
"c  c #800749",
"v  c #A80946",
"b  c #A41243",
"n  c #AC1345",
"m  c #A7184A",
"M  c #BB1A4D",
"N  c #B71649",
"B  c #BB0854",
"V  c #AA1555",
"C  c #B71857",
"Z  c #B20C4D",
"A  c #982D51",
"S  c #BA2855",
"D  c #BB3956",
"F  c #AC274F",
"G  c #871566",
"H  c #93196C",
"J  c #971767",
"K  c #941C72",
"L  c #991B76",
"P  c #A61968",
"I  c #B91A68",
"U  c #B7166E",
"Y  c #99216E",
"T  c #A52866",
"R  c #BA2565",
"E  c #A8257A",
"W  c #B62D74",
"Q  c #C20943",
"!  c #C4174B",
"~  c #C40858",
"^  c #C31C52",
"/  c #C71956",
"(  c #D5185B",
")  c #D7164D",
"_  c #E91651",
"`  c #C83548",
"'  c #C42254",
"]  c #CB2B5B",
"[  c #CA2558",
"{  c #D2235B",
"}  c #D62C59",
"|  c #C9385B",
" . c #D7355A",
".. c #CC294C",
"X. c #E9395B",
"o. c #E83055",
"O. c #CC0C67",
"+. c #D5076C",
"@. c #CA1769",
"#. c #D51A68",
"$. c #D70B76",
"%. c #D51876",
"&. c #CE1D70",
"*. c #E71A67",
"=. c #E21E73",
"-. c #CB2568",
";. c #D62765",
":. c #C93768",
">. c #DA3867",
",. c #C62477",
"<. c #D92776",
"1. c #C63873",
"2. c #D83678",
"3. c #E32B65",
"4. c #E8296A",
"5. c #E83768",
"6. c #F43966",
"7. c #E62876",
"8. c #E53979",
"9. c #F32D72",
"0. c #AD5F6D",
"q. c #CD4942",
"w. c #D14A41",
"e. c #D55642",
"r. c #D75A43",
"t. c #C84656",
"y. c #D65159",
"u. c #E74659",
"i. c #ED4D52",
"p. c #DB6345",
"a. c #DF6E49",
"s. c #DA6658",
"d. c #E16B4A",
"f. c #E17149",
"g. c #E5794B",
"h. c #E67D51",
"j. c #E57A52",
"k. c #F57049",
"l. c #CD4668",
"z. c #D84666",
"x. c #D85867",
"c. c #D85A75",
"v. c #D24C70",
"b. c #E74869",
"n. c #F44865",
"m. c #E85866",
"M. c #F75969",
"N. c #EA4876",
"B. c #F44A78",
"V. c #EA5677",
"C. c #F55A78",
"Z. c #D96D70",
"A. c #E56767",
"S. c #F56A69",
"D. c #E97A6B",
"F. c #F7766A",
"G. c #EA6875",
"H. c #F66777",
"J. c #F77877",
"K. c #E87A74",
"L. c #B68068",
"P. c #EA8857",
"I. c #EE955E",
"U. c #EF985C",
"Y. c #FC985D",
"T. c #F18255",
"R. c #F6856B",
"E. c #F79967",
"W. c #ED8776",
"Q. c #F98778",
"!. c #F99778",
"~. c #EA8D6C",
"^. c #F6AC69",
"/. c #F7A666",
"(. c #FABB6D",
"). c #F9B36B",
"_. c #FBA978",
"`. c #FCB879",
"'. c #DE8477",
"]. c #FEC56F",
"[. c #FCC475",
"{. c #FDCA74",
"}. c #FDCC7B",
"|. c #FBC37D",
" X c #FDD27B",
".X c #FDD779",
"XX c #B12D82",
"oX c #DB1A81",
"OX c #C72C87",
"+X c #DB2A85",
"@X c #D93588",
"#X c #D3348D",
"$X c #E13B8C",
"%X c #E43986",
"&X c #E52694",
"*X c #E43695",
"=X c #F53A82",
"-X c #EC1D98",
";X c #DA4488",
":X c #D6518C",
">X c #E74986",
",X c #F44A87",
"<X c #EA5686",
"1X c #F35586",
"2X c #E44494",
"3X c #E54B99",
"4X c #E95597",
"5X c #F75896",
"6X c #DF698C",
"7X c #F86886",
"8X c #F97987",
"9X c #F86896",
"0X c #ED6F92",
"qX c #E84CA5",
"wX c #F053B0",
"eX c #EA67AA",
"rX c #F172AE",
"tX c #F277C0",
"yX c #FA8788",
"uX c #FA9686",
"iX c #FA8A96",
"pX c #FC999A",
"aX c #EB8380",
"sX c #FCA788",
"dX c #FBB786",
"fX c #FCB796",
"gX c #F7A997",
"hX c #FC9AA2",
"jX c #FC88A4",
"kX c #FDA9A5",
"lX c #FCB6A9",
"zX c #FAB3B7",
"xX c #FBC787",
"cX c #FDDA84",
"vX c #FDD788",
"bX c #FBC597",
"nX c #FDDB97",
"mX c #FEE38B",
"MX c #FEE498",
"NX c #FDC8A9",
"BX c #FBD0B3",
"VX c #FDE6A7",
"CX c #FEE9B6",
"ZX c #FFF5B9",
"AX c #F88DCE",
"SX c #FDD7C8",
"DX c #FDDDD6",
"FX c #FEE9C5",
"GX c #FEF4C3",
"HX c #FDE9D7",
"JX c #FEF4D8",
"KX c #FEF8E8",
"LX c #FDFCF9",
/* pixels */
"9 9 ' $.#X:X7 8 -.$.+XAXl.e 8 8 8 8 8 e 7 7 7 0 7 7 7 7 7 0 7 7 8 8 8 7 6XqX+.%.S 7 6 D 2X$.%.S 9 9 ",
"| 9 8 &.$.qXv.9 | $.+.eX6Xe y 0 t e t t 0 0 0 0 0 0 0 0 r r 0 0 0 0 0 0 rX#X+.#.0 7 7 :XoX$.-.9 9 l.",
"eX| 7 ..O.oXrXq.` %.+.*XrXr y y y y y u 0 y r y i y y 0 y u y y q p q y.eXO.$.-.r 6 :X%X$.-.8 6 l.qX",
"+XeXt.e -.$.*XrXu &.O.O.rXy.p p u p u p p p p p p p p p p p y u p a y 6X3X~ O.] r c.qX$.&.y 6 v.qX,.",
"@.+XeXy.q #.O.wX0X-.@.B qXK.a q.w.w.s w.w.a w.w.q.s q.a d w.a w.w.q.p 0X,.~ O...s.wX$.@.` r c.wX%./ ",
"` #.&XeXx.y O.@.tX@X~ O.@.rXr.e.e.e.e.r.e.e.e.e.r.r.e.e.r.e.e.e.r.w.s.4X~ ~ B :.eX&.O.` i 6XwX%.[ t ",
"a w.;.-XwX6X' B @.eXC Z B #XW.h d.p.p.p.p.p.p.p.p.p.p.p.p.p.p.p.p.h 8X<.~ 4 C eX&.B ^ q.0XwXoX} s u ",
"i.s w.#.-XwX6XM < +XeX- v @.0Xf.d.d.a.f.f.f.f.f.f.f.f.f.f.a.a.a.p.j.6X~ v > :X<.v 4 :.rX-X$.o.w.s w.",
"qX<Xd.f o.$.wX3Xj 4 $X:XX 4 ;XR.f.j.j.P.P.j.j.P.h.P.j.P.g.g.j.P.f.~.2.4 X 1.<.v 1 :.wX-X+.i.h f m.4X",
"4.-XqXG.g o.+.-X@X: < +XT   C W.P.P.P.I.P.P.P.I.P.P.P.P.P.P.P.P.P.W.n   T <.4 * R *X$.( f g S.4X*X4.",
"k.i.*.&X5XJ.i.~ $.&.= 1 @.* = W.I.I.I.I.I.I.I.I.I.I.I.I.U.~.P.I.U.W.* X C 4 O V %.~ o.g F.>X&X*.i.k.",
"k.k.k.3.@.+XC.b.@.B O.X > < O K.^.U.I.^.U.I.U.I.U./././.^.I./.I.U.R.* 3 1   v ~ B ;.m.2X<.#.u.k.g g ",
"k.M.b.b.<.C U O.C j 1 j O > * Z.^.^.^.^.^.^.^.^.^.^.^.^.^.^.^./.).W.3 3   * > . m B B B @.>.b.m.F.k.",
"#.<.%X<.@.I v v v j . X > - v K.[.).).).(.(.(.(.(.(.].(.(.).).^.(.~.Z 3 * X O = < v j V I -.2.2.;.#.",
"u. .;.<.@.I V j j j j = - N #.J.[.[.[.[.[.[.[.{.[.[.[.[.[.|.|.(.[.uX*./ < . * , > c V C I &.-. .u.u.",
"3.4.;.;./ V Z Z j o ; = , N 7.gX X}.{. X XcX.XcX.XcX X X X}. X|.}.fX,X/ < * = = ; j v v M [ >.;.4.3.",
"F.k.>.;./ V 2 = ; ; ; : b / 8.lXcX.XcXvXmXMXNXkXgXgXmXMXmXcXcXcXcXNX1X( v * . . . . = j M [ >.m.F.Y.",
"F.S.S.m.:.k o o ; : ; j N ( 1XNXmXnXnXVXVXzX9X$X<.k A 0.mXMXnXvXmXNX9X4.M 1 . o = . . - S x.S.F.F.R.",
"P.A.x.| m = ; = o ; , b C ;.5XBXVXVXCXZXzX9X3X7.m A L.0.0.MXMXnXMXBX9X4.! 4 ; = o = ; = 2 D y.x.D.E.",
"E.R.A.t.m : o o ; : < b M ;.B.lXZXCXFXSXrX5X=X9.;.BXZXZXVXVXVXVXVXlX1X;.Z < - = * . . : k F x.~.E./.",
"R.~.s.t.m ; ; : : : 2 k m ' 5.1XkXSXJXDX9X5X,X=X,X9XSXFXGXZXGXBXpXB.3.! 4 , - = = ; = - k D s.'.W.E.",
"R.x.:.m , 2 ; ; ; 2 , < 5 n ^ ;.N.6XpXDXzX9X,X=X,X1X9XSXKXSXjXV.3.^ M n 2 3 - - = = = : < k | Z.E.E.",
"F.A.x.l.x.A : : : 2 2 b 5 m N ^ [ >.6.1XhXrX,X9.9.=X,XjXzXB.>.( ! N n 4 < 3 = = - = ; F x.x.Z.D.R.E.",
"/.E.W.x.| m 2 b 2 b n n n n N N M / ;.3.4.,X9.9.*.9.9.,X<X{ [ M N N n < < 2 < : - , 2 F D Z.~.E./.Y.",
"Y.E.S.b.:.S m n S S N M N M M M N M ' / ' *.*.*.*.*.3.4.>.^ ^ M N n n n n 4 k m b < F S :.V.W.E.E.Y.",
"Y.R.F.C.N.R l.K.c.[ M ' M S M C ' [ [ [ [ { ( ( ( _ *.#.( ' ' ^ ^ ^ N n b b Z S x.l.S l.x.H.J.!.^./.",
"Y.R.R.J.G.!.`.8X;.^ | { S ] ] [  .] >.] ] } { / ~ [ { } ] ] ] [ [ [ | ^ S S N N c.xXxXG.C.Q.!././.E.",
"Y.Y././.^.W.5.{ v.G.N.5.B.B.V.7XV.V.N.m.z.>.>. .} .. .5.z.b.V.b.V.V.8.7X5.8.G.z.#.z.dXmX`.`.dX_.!.8X",
"R.E.E.Q.H.C.Q.dXyX9.1X7X,X8XiX9XkXyXiXuX8XJ.b.b.>.u.N.m.J.yXyXhX7XhX8XB.8XH.5.uXdXC.7.H.sXfXuXyXyX8X",
"R.!.!.!.).{.`.C.B.uX8X,XpXkXiXBXpXpXNXfXBXSXuXC.C.C.M.uXSXkXlXhXlXiXlXkX7XpXuX8.yXmX`.8XH.yXsXQ.Q.F.",
"C.J./.).).yX1X!.`.7X7XbXnXNXFXSXBXJXSXHXKXLXFX!.Q.F.R.FXLXDXDXSXBXZXfXVXnXsXxX|.H.8XxX X`.Q.!.F.M.6.",
"C.S.Q.!.!.!.[.`.8XuXvXcXcXMXVXFXJXHXLXLXLXKXbXbXdXS.!.fXLXLXLXKXJXCXVXmXvX.X}.].{.Q.8XdX`.!.H.C.B.6.",
"n.H.F.Q._.(.(._.}. X}.}.cXcXvXVXCXFXJXDXNXfXdXuXH.b.S.J.pXHXKXHXFXCXnXnXvX}.[.[.[.vX`.!.Q.H.C.M.n.6.",
"4.b.S.J.Q._.(.[.].[.[.}.}. XcXvXMXCXpXF.fXNXJ.n.X.5.n.M.u.S.zXGXCXVXnXvXvX XxXxXxX!.Q.Q.S.M.M.n.o.6.",
"5.b.B.F.J.Q._.|.(.(.[.{.{.{. X XmXdXQ.VXlXi.X.X...o.o.6.o.} o.yXCXVXnXnXvXxXsXuX8X8XJ.H.n.6.6.n.M.o.",
"3.5.B.C.H.H.J.Q.`.dX`.[.{.{.{.{..XxXMXuX_ X.uX} ! 5 ) ) 5 N | _ 8XVXnXnXbXsX8X8XuXS.6.7.4.4.n.u.C V ",
"R ;.m.N.N.S.H.C.J.uXsX`.(.(.`.{.{..X_._ b.bXx.w 9 ` 4 5 3 3 ..u._ fXfXsXyXyXyXyXF.n.N.B.M.X.;.C P J ",
"J V >.N.%X8.H.7XC.H.Q.!.`.dXdX|.{.xXo.X.mXG.Q N '.S 3 3 3 6 4 l.X.8XpXiXuXyXS.S.M.n.n.n.o.-.,.P P D ",
"z J I -.N.<XN.V.8X8XyX!.sX_.`.sXfX!._ fXuXQ B K.~.3 - * 2 Z.< n K.Q.uXF.M.n.6.6.5.u.;.#.<.,.U P :.N ",
"G x P @.2.m.1X<X1XH.8X8X!.Q.!.sXfXF.n.kX .B v.bXt.. * * D pXm 4 J.S.6.*.*.6.6.4.4.=.<.<.,.,.,.:.F c ",
"x z x P R >.N.C.1XB.C.H.8XaX7X7XuXuX8X7XQ { 8XiXn > A > l.pX .w 6.*.*.*.4.4.<.7.7.+X@X+X2.1.z.m + c ",
"z x G l G x R ;.V.N.V.C.B.7X8X8XH.yXpXV.5 <XrXG.1 F :.> z.C._ 3.&X=.=.7.<.+X7.%X%X%X@X>Xv.@XT c + + ",
"@ $ x H G G P P R -.-.>.N.N.C.J.8X8XyXm.w 1X9Xb.4 N.N v =X7.7.<.7.7.+X$X$X$X$X$X$X$X2X;X@X1.l l + + ",
"# @ # T L J L L U U ,.,.;.>.8.V.H.8XiXV.) 9X9Xm.! ,X4 ;.*X+X+X@X$X$X>X2X,X2X2X2X>X>XN.,.1.x l c + + ",
"# @ @ x XXXXL XXU OXU XX,.,.<.7.8.N.1XV.N.7X7XV.8.8.w @X%X$X>XH.C.V.>X%X>XN.>X>XN.V.1.T l l l % % + ",
"& & # # A OXOXOXOXOXOXOXOX,.+X@X@X%X%X=X,X,X1X1X5X5.2.<X>X>XV.<X;X>X>Xv.2.<.>.2.1.T l l l l $ # @ x ",
"K G & & @ T ;X:X;X#X;X#XOXOX#X@X$X$X2X4X4X,X,X4X<X<X9XV.>X;X>X;X#X2X1.T J J J P J G G G G G G G z T ",
"K G G & # # z x z G T #X;X3X3X4X3X4X0X4X<X@XN.%X2.@XN.@X2.@X#X$X:Xv.P J H H H G J G G G H L L T T + ",
"L K K & & & & Y & % % & A c.qXeX4X6X6X>X@X$X@X$X@X#X@X#X+X#X;X1.T J J L J H H H H H K L XXXX1.A % @ ",
"XXL K & & @ @ @ & & # # # & v.eX3X2X#X2X2X2X2X3X3X4X>X:X;X:XT J J H K K K K K K K L L XX1.T % @ + @ "
};
